<svg width="20" height="20" viewBox="0 0 20 20" fill="none" xmlns="http://www.w3.org/2000/svg">
<path fill-rule="evenodd" clip-rule="evenodd" d="M10 0C7.28416 0 6.94362 0.0115116 5.87701 0.0601777C4.81263 0.108725 4.08569 0.277786 3.44962 0.525007C2.79203 0.780524 2.23436 1.12246 1.67839 1.67839C1.12246 2.23436 0.780524 2.79203 0.525007 3.44962C0.277786 4.08569 0.108725 4.81263 0.0601777 5.87701C0.0115116 6.94362 0 7.28416 0 10C0 12.7158 0.0115116 13.0564 0.0601777 14.123C0.108725 15.1874 0.277786 15.9143 0.525007 16.5504C0.780524 17.208 1.12246 17.7656 1.67839 18.3216C2.23436 18.8775 2.79203 19.2195 3.44962 19.475C4.08569 19.7222 4.81263 19.8913 5.87701 19.9398C6.94362 19.9885 7.28416 20 10 20C12.7158 20 13.0564 19.9885 14.123 19.9398C15.1874 19.8913 15.9143 19.7222 16.5504 19.475C17.208 19.2195 17.7656 18.8775 18.3216 18.3216C18.8775 17.7656 19.2195 17.208 19.475 16.5504C19.7222 15.9143 19.8913 15.1874 19.9398 14.123C19.9885 13.0564 20 12.7158 20 10C20 7.28416 19.9885 6.94362 19.9398 5.87701C19.8913 4.81263 19.7222 4.08569 19.475 3.44962C19.2195 2.79203 18.8775 2.23436 18.3216 1.67839C17.7656 1.12246 17.208 0.780524 16.5504 0.525007C15.9143 0.277786 15.1874 0.108725 14.123 0.0601777C13.0564 0.0115116 12.7158 0 10 0ZM9.99998 1.80176C12.6701 1.80176 12.9864 1.81196 14.0408 1.86007C15.0158 1.90453 15.5453 2.06744 15.8977 2.20438C16.3644 2.38579 16.6976 2.60249 17.0475 2.95244C17.3974 3.30235 17.6141 3.63547 17.7955 4.10225C17.9325 4.45462 18.0954 4.98411 18.1398 5.9591C18.188 7.01356 18.1982 7.32985 18.1982 9.99998C18.1982 12.6701 18.188 12.9864 18.1398 14.0408C18.0954 15.0158 17.9325 15.5453 17.7955 15.8977C17.6141 16.3644 17.3974 16.6976 17.0475 17.0475C16.6976 17.3974 16.3644 17.6141 15.8977 17.7955C15.5453 17.9325 15.0158 18.0954 14.0408 18.1398C12.9865 18.188 12.6703 18.1982 9.99998 18.1982C7.32965 18.1982 7.01344 18.188 5.9591 18.1398C4.98411 18.0954 4.45462 17.9325 4.10225 17.7955C3.63547 17.6141 3.30235 17.3974 2.95244 17.0475C2.60253 16.6976 2.38579 16.3644 2.20438 15.8977C2.06744 15.5453 1.90453 15.0158 1.86007 14.0408C1.81196 12.9864 1.80176 12.6701 1.80176 9.99998C1.80176 7.32985 1.81196 7.01356 1.86007 5.9591C1.90453 4.98411 2.06744 4.45462 2.20438 4.10225C2.38579 3.63547 2.60249 3.30235 2.95244 2.95244C3.30235 2.60249 3.63547 2.38579 4.10225 2.20438C4.45462 2.06744 4.98411 1.90453 5.9591 1.86007C7.01356 1.81196 7.32985 1.80176 9.99998 1.80176ZM4.86499 10.0001C4.86499 7.16397 7.16405 4.86491 10.0001 4.86491C12.8362 4.86491 15.1353 7.16397 15.1353 10.0001C15.1353 12.8361 12.8362 15.1352 10.0001 15.1352C7.16405 15.1352 4.86499 12.8361 4.86499 10.0001ZM10.0001 13.3333C8.15912 13.3333 6.66675 11.841 6.66675 10C6.66675 8.15904 8.15912 6.66667 10.0001 6.66667C11.841 6.66667 13.3334 8.15904 13.3334 10C13.3334 11.841 11.841 13.3333 10.0001 13.3333ZM15.3379 5.86208C16.0007 5.86208 16.5379 5.32485 16.5379 4.6621C16.5379 3.99935 16.0007 3.46208 15.3379 3.46208C14.6752 3.46208 14.1379 3.99935 14.1379 4.6621C14.1379 5.32485 14.6752 5.86208 15.3379 5.86208Z" fill="#484747"/>
</svg>
