<svg width="20" height="20" viewBox="0 0 20 20" fill="none" xmlns="http://www.w3.org/2000/svg">
<path fill-rule="evenodd" clip-rule="evenodd" d="M20 19.1818H15.5797V12.7901C15.5797 11.1171 14.8883 9.97501 13.3678 9.97501C12.2049 9.97501 11.5581 10.7457 11.2571 11.4885C11.1442 11.7551 11.1618 12.1265 11.1618 12.4979V19.1818H6.78271C6.78271 19.1818 6.83916 7.8596 6.78271 6.83042H11.1618V8.76887C11.4205 7.92131 12.8199 6.71167 15.0529 6.71167C17.8234 6.71167 20 8.48829 20 12.314V19.1818ZM2.35418 4.28554H2.32596C0.914863 4.28554 0 3.34134 0 2.14451C0 0.9244 0.941909 0 2.38123 0C3.81938 0 4.70366 0.922071 4.73189 2.14102C4.73189 3.33785 3.81938 4.28554 2.35418 4.28554ZM0.504639 6.83044H4.4028V19.1818H0.504639V6.83044Z" fill="#484747"/>
</svg>
